# xmcd
#
# Track frame offsets:
#	150
#	22277
#	35472
#	52567
#	72402
#	90520
#	109172
#	128097
#	148512
#	166402
#	182470
#	197140
#
# Disc length: 2816 seconds
#
# Revision: 12
# Processed by: cddbd v1.5.2PL0 Copyright (c) Steve Scherf et al.
# Submitted via: Jack! The Knife 20 Magnifico
#
DISCID=9f0afe0c
DTITLE=AC-DC - The Razors Edge
DYEAR=1990
DGENRE=Hard Rock
TTITLE0=Thunderstruck
TTITLE1=Fire Your Guns
TTITLE2=Moneytalks
TTITLE3=The Razors Edge
TTITLE4=Mistress For Christmas
TTITLE5=Rock Your Heart Out
TTITLE6=Are You Ready
TTITLE7=Got You By The Balls
TTITLE8=Shot Of Love
TTITLE9=Lets Make It
TTITLE10=Goodbye and Good Riddance To Bad Luck
TTITLE11=If You Dare
EXTD=Bruce Fairbairn
EXTT0=Young, Young
EXTT1=Young, Young
EXTT2=Young, Young
EXTT3=Young, Young
EXTT4=Young, Young
EXTT5=Young, Young
EXTT6=Young, Young
EXTT7=Young, Young
EXTT8=Young, Young
EXTT9=Young, Young
EXTT10=Young, Young
EXTT11=Young, Young
PLAYORDER=
